# xmcd CD database file
#
# Track frame offsets:
#	150
#	21390
#	43575
#	63382
#	90535
#	117842
#	141272
#	157100
#	168410
#	186700
#	206772
#	222637
#
# Disc length: 3303 seconds
#
# Revision: 0
# Processed by: cddbd v1.4PL0 Copyright (c) Steve Scherf et al.
# Submitted via: CDex 1.50beta10
#
DISCID=bc0ce50c
DTITLE=Johnny Mars - Stateside
DYEAR=1994
DGENRE=Jazz
TTITLE0=Early In The Morning
TTITLE1=It Takes Time
TTITLE2=Have You Heard About The Blues?
TTITLE3=Stateside
TTITLE4=Move
TTITLE5=Remember...?
TTITLE6=Harp Dance
TTITLE7=Living In The Shadow
TTITLE8=You Know The Rules
TTITLE9=Home Sweet Home - Reflection 1
TTITLE10=Home Sweet Home - Reprise
TTITLE11=London Blues
EXTD=YEAR: 1994
EXTT0=
EXTT1=
EXTT2=
EXTT3=
EXTT4=
EXTT5=
EXTT6=
EXTT7=
EXTT8=
EXTT9=
EXTT10=
EXTT11=
PLAYORDER=
